 <svg  version="1.0" xmlns="http://www.w3.org/2000/svg"  width="300.000000pt" height="349.000000pt" viewBox="0 0 300.000000 349.000000"  preserveAspectRatio="xMidYMid meet">  <g transform="translate(0.000000,349.000000) scale(0.050000,-0.050000)" fill="#080808" stroke="none"> <path d="M2530 6927 c-300 -31 -549 -97 -755 -200 -78 -39 -188 -75 -262 -85 -144 -21 -193 -42 -289 -125 -36 -31 -95 -69 -131 -84 -164 -69 -513 -593 -513 -771 0 -100 -29 -121 -57 -42 -25 71 -93 82 -113 19 -7 -22 -2 -104 12 -182 24 -136 24 -143 -18 -174 -36 -27 -49 -72 -74 -253 -17 -121 -58 -298 -90 -393 -139 -402 -26 -1174 173 -1193 l63 -6 -3 -145 c-3 -125 5 -159 56 -254 152 -283 174 -339 223 -579 88 -432 155 -537 470 -746 165 -110 194 -137 247 -242 61 -119 104 -107 77 21 -19 87 31 63 76 -38 l47 -105 7 117 c16 291 -161 553 -374 553 -190 0 -342 300 -261 513 33 88 8 166 -114 348 -346 518 -476 1051 -399 1629 83 620 207 872 304 618 39 -102 27 -131 -32 -78 -58 52 -60 38 -28 -140 16 -88 38 -317 49 -509 21 -365 33 -411 95 -355 59 54 84 41 84 -41 0 -171 -58 -275 -173 -315 -87 -30 -119 -95 -88 -177 41 -109 126 -80 202 68 52 102 90 131 131 98 111 -92 141 324 40 557 -155 359 -196 1184 -60 1184 16 0 28 -9 28 -20 0 -39 37 -19 175 97 77 64 216 163 310 220 179 108 229 152 198 171 -56 34 -360 -145 -546 -322 -176 -168 -257 -122 -257 146 0 154 19 199 94 217 31 7 170 77 310 154 1918 1058 3976 -276 3548 -2300 -64 -302 -62 -396 12 -514 204 -327 53 -620 -243 -470 -192 98 -242 227 -169 437 144 416 7 747 -352 855 -60 18 -222 68 -360 111 -308 96 -311 96 -597 -3 -128 -45 -336 -103 -463 -130 -126 -27 -269 -64 -316 -81 -100 -37 -119 -28 -87 43 51 113 -57 91 -408 -83 -640 -316 -831 -671 -570 -1061 458 -686 1230 -169 1110 744 -36 277 -57 244 175 279 209 31 468 118 612 205 166 100 264 131 264 83 0 -12 -45 -40 -99 -63 -131 -56 -151 -106 -149 -375 4 -527 278 -787 834 -793 398 -4 435 -47 334 -389 -55 -188 20 -196 155 -18 107 139 112 129 139 -282 31 -471 19 -633 -67 -892 -49 -148 -75 -280 -96 -473 -45 -434 -146 -561 -648 -817 l-189 -96 253 0 252 0 48 76 c115 181 393 351 393 239 0 -14 -23 -69 -51 -122 -69 -129 -60 -183 28 -183 62 0 70 7 105 100 58 152 34 320 -45 320 -72 0 -3 563 115 935 l68 214 1 496 1 495 84 61 c186 135 229 369 116 639 -72 172 -79 292 -30 500 96 403 48 1026 -106 1388 -66 152 -96 210 -213 409 -113 190 -453 548 -496 521 -14 -9 -18 -5 -10 8 20 31 -252 210 -495 326 -418 199 -915 278 -1362 218 -258 -35 -382 -58 -446 -82 -88 -34 -72 0 18 38 369 156 1274 213 1756 110 163 -35 170 -39 209 -114 22 -43 56 -82 76 -87 20 -5 32 -16 27 -25 -9 -15 6 -22 196 -90 135 -48 305 -167 365 -256 28 -41 60 -70 71 -63 10 7 17 5 14 -5 -3 -9 46 -66 108 -128 97 -96 119 -134 162 -270 28 -87 82 -230 120 -318 176 -407 214 -692 214 -1616 0 -701 -1 -713 -111 -1044 -65 -197 -66 -204 -55 -465 l12 -265 -63 -125 c-126 -249 -177 -1420 -76 -1730 l35 -105 86 0 87 0 -26 75 c-131 381 -76 1608 79 1753 l62 57 0 227 c0 184 -6 233 -33 260 -36 35 -9 149 71 304 136 264 163 1325 53 2077 -46 310 -81 434 -199 702 -45 102 -82 207 -82 233 0 131 -259 492 -354 492 -38 0 -47 8 -38 32 48 124 -473 445 -632 390 -89 -31 -94 -10 -15 57 113 95 26 172 -264 234 -143 30 -1082 55 -1287 34z m-961 -518 c-50 -39 -424 -245 -475 -261 -117 -37 152 186 316 263 89 41 212 40 159 -2z m-772 -776 c13 -15 18 -32 11 -38 -6 -6 1 -49 15 -95 26 -90 -9 -152 -73 -127 -15 5 -50 -5 -78 -24 l-52 -34 0 90 c0 57 11 100 31 116 18 14 45 51 61 83 32 62 52 69 85 29z m3176 -1691 c373 -117 387 -132 387 -414 0 -346 -28 -386 -274 -389 -175 -2 -250 16 -375 89 -47 28 -94 44 -103 36 -10 -8 -12 -6 -5 3 8 9 -16 57 -54 105 -134 177 -159 525 -44 618 82 65 121 62 468 -48z m-1693 -458 c0 -404 -16 -460 -169 -601 -194 -179 -454 -141 -614 91 -189 276 -57 505 447 771 73 39 127 78 120 86 -8 8 -4 10 8 3 12 -7 48 -5 80 3 128 35 128 35 128 -353z"/> <path d="M2599 6103 c16 -11 94 -26 174 -34 216 -20 218 -23 211 -287 -6 -242 -1 -251 99 -180 67 48 90 40 59 -19 -109 -202 79 -287 663 -298 228 -5 415 -16 415 -25 0 -31 -65 -40 -287 -40 -220 -1 -310 -21 -328 -75 -9 -26 5 -33 101 -54 31 -7 95 -48 142 -92 98 -90 113 -94 159 -42 48 53 41 87 -30 145 -60 49 -61 52 -20 63 111 29 161 -79 303 -645 80 -318 120 -411 186 -427 29 -7 82 -56 124 -113 105 -142 161 -118 70 31 -22 35 -58 145 -79 242 -44 206 -100 341 -253 611 -156 272 -130 392 43 204 108 -118 116 -81 18 83 -83 141 -147 198 -269 241 -49 18 -117 42 -150 54 -33 12 -97 59 -141 105 -49 49 -122 97 -180 117 -274 96 -535 254 -569 343 -11 27 -40 58 -66 68 -71 26 -431 48 -395 24z m804 -563 l47 -39 -50 8 c-27 4 -57 9 -65 10 -21 2 -19 61 3 61 10 0 39 -18 65 -40z"/> <path d="M1922 4516 c-119 -125 -84 -242 80 -269 88 -14 238 25 238 62 0 43 -67 55 -169 29 -117 -29 -123 -22 -91 112 33 137 21 150 -58 66z"/> <path d="M1371 4409 c-33 -34 -44 -169 -13 -169 10 0 37 32 59 70 53 89 59 88 176 -18 105 -95 107 -130 6 -95 -77 27 -106 14 -79 -37 41 -77 197 -50 279 49 87 105 -329 298 -428 200z"/> <path d="M2975 4384 c-191 -68 -304 -204 -170 -204 112 1 358 166 326 219 -18 28 -43 26 -156 -15z"/> <path d="M2734 3372 c-8 -19 -14 -66 -14 -102 0 -64 -25 -99 -70 -100 -78 -1 -221 -546 -182 -698 35 -142 392 -188 392 -50 0 50 12 48 84 -12 132 -112 269 -22 250 164 -16 157 -207 543 -306 620 -40 31 -88 91 -106 135 -28 63 -38 72 -48 43z m181 -492 c-1 -5 15 -45 34 -89 64 -145 66 -215 5 -200 -35 9 -77 -1 -130 -31 -169 -95 -232 22 -152 286 50 165 98 195 181 109 34 -36 62 -69 62 -75z"/> <path d="M3500 2811 c0 -56 38 -126 109 -203 39 -43 82 -114 95 -158 28 -92 88 -183 134 -200 69 -27 109 137 63 258 -60 157 -401 416 -401 303z"/> <path d="M2267 2330 c183 -170 673 -236 673 -92 0 52 -61 69 -190 53 -134 -17 -329 18 -453 81 -135 68 -141 59 -30 -42z"/> <path d="M2030 2267 c7 -42 21 -120 31 -173 33 -166 26 -240 -21 -228 -51 13 -51 -17 0 -129 78 -172 39 -299 -66 -216 -68 53 -112 175 -127 351 -15 168 -28 187 -86 129 -54 -54 -52 -123 9 -333 28 -95 50 -208 50 -251 0 -105 62 -281 149 -426 150 -250 219 -524 126 -500 -40 10 -54 4 -64 -29 -20 -63 22 -127 67 -103 42 23 62 9 62 -41 0 -20 -24 -48 -54 -62 -38 -18 -61 -50 -75 -106 -31 -119 -44 -130 -149 -130 -141 0 -276 48 -432 153 -449 301 -1059 342 -1385 94 -133 -101 -86 -239 60 -177 28 11 35 4 35 -38 0 -68 35 -67 178 3 152 75 269 75 333 0 60 -70 149 -76 148 -10 0 49 -46 121 -65 103 -6 -7 -6 8 0 32 19 74 258 21 502 -112 l125 -68 370 0 369 0 0 51 c0 62 61 186 118 237 l42 38 0 -163 0 -163 463 0 462 0 -10 104 c-8 80 -21 113 -61 145 -29 22 -67 77 -85 121 -40 96 -85 150 -125 150 -49 0 -12 -152 77 -317 108 -199 115 -190 -147 -179 -390 18 -492 131 -573 646 -13 77 -32 170 -44 206 -28 88 -14 96 59 34 92 -78 230 -132 299 -118 50 10 66 2 104 -50 49 -69 81 -65 81 9 0 109 162 -40 198 -182 17 -68 32 -89 62 -89 47 0 51 48 10 120 -80 139 -18 226 133 189 42 -10 68 1 131 58 63 57 94 70 159 69 56 0 122 22 219 73 116 62 151 72 221 63 l83 -11 11 95 c39 338 39 335 -5 434 -89 202 -31 258 65 62 65 -133 76 -136 54 -15 -29 157 18 213 78 92 72 -148 6 -595 -110 -739 -27 -33 -73 -90 -103 -127 l-54 -67 49 -143 c62 -180 86 -180 100 -2 9 112 26 167 84 271 157 281 267 981 194 1242 -37 134 -219 239 -219 127 0 -35 18 -59 58 -80 208 -107 36 -371 -242 -371 -112 0 -138 -6 -155 -39 -23 -42 -151 -85 -371 -123 -180 -32 -214 -56 -129 -91 34 -15 67 -45 73 -67 14 -54 18 -52 121 42 81 75 97 82 170 72 99 -13 135 -1 135 48 0 53 30 47 79 -15 102 -129 39 -252 -131 -256 -86 -1 -157 -19 -262 -67 -210 -94 -255 -100 -296 -36 -44 66 -62 65 -98 -4 -44 -86 -115 -106 -462 -135 -176 -14 -343 -32 -372 -39 -47 -12 -54 -6 -65 51 -32 158 -12 192 61 104 l45 -55 0 73 1 73 231 14 c199 13 235 10 267 -18 89 -81 322 167 294 314 -18 95 -51 94 -107 -5 -82 -145 -164 -124 -244 61 -51 120 -81 111 -81 -24 0 -108 -39 -206 -91 -226 -62 -23 -128 -12 -148 27 -31 56 -26 65 21 40 53 -28 84 -2 75 64 -6 43 -17 47 -117 47 -108 0 -111 2 -147 77 -29 59 -47 74 -77 66 -31 -8 -36 -3 -25 23 33 79 29 125 -30 309 -66 204 -113 278 -91 142z m263 -729 c24 -20 6 -132 -19 -123 -8 3 -23 5 -35 5 -18 0 -79 116 -79 152 0 16 103 -10 133 -34z m947 -507 c0 -19 -32 -33 -95 -43 -52 -7 -115 -27 -139 -43 -30 -19 -54 -22 -78 -9 -28 15 -15 28 74 70 123 58 238 70 238 25z"/> <path d="M1545 1275 c-105 -72 -104 -120 3 -235 94 -101 98 -107 100 -210 2 -50 11 -61 58 -66 125 -15 148 78 47 191 -96 108 -117 156 -110 260 8 108 -11 120 -98 60z"/> <path d="M3766 831 c-40 -84 -94 -104 -207 -75 -88 22 -112 6 -80 -54 28 -53 5 -63 -90 -41 -104 24 -149 8 -149 -52 0 -41 10 -49 62 -49 235 0 576 183 554 296 -11 59 -55 47 -90 -25z"/> <path d="M5890 157 c-50 -11 -104 -44 -144 -88 l-64 -69 159 0 159 0 0 90 c0 50 -7 89 -15 88 -8 -1 -51 -10 -95 -21z"/> </g> </svg> 