<?xml version="1.0" standalone="no"?>
<!DOCTYPE svg PUBLIC "-//W3C//DTD SVG 20010904//EN"
 "http://www.w3.org/TR/2001/REC-SVG-20010904/DTD/svg10.dtd">
<svg version="1.0" xmlns="http://www.w3.org/2000/svg"
 width="300.000000pt" height="382.000000pt" viewBox="0 0 300.000000 382.000000"
 preserveAspectRatio="xMidYMid meet">
<metadata>
Created by potrace 1.10, written by Peter Selinger 2001-2011
</metadata>
<g transform="translate(0.000000,382.000000) scale(0.050000,-0.050000)"
fill="#000000" stroke="none">
<path d="M40 7271 c0 -224 -8 -373 -20 -381 -11 -7 -20 -101 -20 -213 l0 -200
92 136 c180 268 176 254 184 662 l8 365 -122 0 -122 0 0 -369z"/>
<path d="M590 7595 c-101 -441 -101 -444 58 -383 51 19 37 -24 -31 -102 -34
-39 -56 -78 -48 -86 62 -60 231 308 231 502 l0 114 -100 0 c-87 0 -101 -6
-110 -45z"/>
<path d="M2380 6867 c-877 -109 -1536 -435 -2225 -1101 l-155 -150 0 -121 0
-122 145 140 c961 923 2521 1337 3678 974 262 -82 297 -80 297 20 0 141 -155
237 -510 314 -195 42 -1017 73 -1230 46z"/>
<path d="M4464 6445 c-68 -183 -57 -209 123 -277 321 -121 601 -285 930 -546
443 -351 480 -373 454 -268 -59 233 -721 787 -1283 1073 -171 87 -197 90 -224
18z"/>
<path d="M1940 6337 c-681 -47 -1013 -382 -1182 -1192 -116 -560 -234 -743
-643 -999 l-115 -72 0 -161 c0 -152 2 -159 31 -117 95 134 180 9 236 -348 35
-221 82 -316 241 -492 l122 -135 10 435 c11 496 29 562 166 631 387 192 614
-742 342 -1403 -159 -387 -132 -737 74 -943 151 -151 217 -46 110 177 -120
251 -116 471 19 1062 161 702 177 912 81 1108 -31 62 -79 129 -107 147 -277
182 -196 516 172 703 132 68 195 52 187 -46 l-6 -78 79 11 c98 13 152 -20 182
-113 32 -95 89 -139 187 -144 46 -2 86 -5 87 -6 2 -1 -5 -33 -15 -72 -22 -77
4 -150 52 -150 50 0 74 79 67 217 l-7 133 70 -2 c70 -3 391 -43 475 -60 107
-21 20 -137 -203 -270 -169 -101 -144 -129 51 -58 265 97 429 200 667 420 334
309 681 302 719 -15 27 -234 51 -312 121 -401 52 -67 70 -110 70 -166 0 -57
12 -85 53 -117 95 -75 164 -47 126 52 -31 82 15 107 200 107 159 -1 208 -16
198 -62 -12 -51 26 -45 135 21 559 340 579 -660 27 -1369 -273 -351 -531 -784
-515 -863 8 -41 30 -13 223 281 187 288 210 209 37 -131 -304 -599 -906 -1399
-1314 -1744 l-132 -113 158 0 157 0 94 92 93 92 0 -92 0 -92 80 0 c79 0 80 0
155 155 83 172 147 228 355 312 292 118 385 81 219 -88 -113 -115 -107 -137
25 -88 68 25 179 37 386 44 333 11 345 14 378 125 13 46 68 130 124 192 91
101 113 158 52 138 -240 -77 -880 -179 -1038 -164 -133 12 -223 -11 -291 -72
-25 -23 -45 -34 -45 -25 0 36 210 387 270 451 39 42 82 123 108 201 56 172
121 247 400 458 127 97 268 214 311 259 88 92 138 103 173 39 64 -120 -23
-286 -256 -490 -425 -372 -398 -423 243 -451 221 -9 431 -25 467 -35 l66 -18
-6 132 c-6 130 -7 132 -75 155 -78 26 -105 70 -43 70 69 0 122 70 122 160 0
97 -23 101 -137 24 -88 -59 -183 -180 -183 -233 0 -35 -22 -39 -190 -32 -166
7 -169 18 -35 169 254 286 291 516 113 700 -122 125 -198 114 -408 -58 l-110
-90 -14 151 -14 151 135 179 c435 573 588 1349 321 1628 -36 37 -17 87 42 111
33 14 60 33 60 43 0 10 25 -5 55 -33 30 -28 75 -56 100 -63 46 -12 62 -74 25
-97 -33 -20 -120 -204 -120 -253 0 -52 99 -211 170 -273 l50 -44 -40 -75 c-50
-93 -50 -120 0 -195 51 -78 50 -107 -5 -129 -48 -18 -165 -132 -202 -197 -149
-254 -188 -419 -126 -537 31 -62 160 -187 191 -187 10 0 69 -32 133 -70 167
-100 189 -96 189 40 0 91 -6 110 -35 110 -19 0 -68 37 -109 82 -69 75 -82 81
-146 69 -64 -12 -70 -9 -70 34 0 90 63 260 114 307 38 35 48 59 38 95 -8 34
-2 52 20 61 84 32 135 -26 117 -131 -12 -76 11 -137 53 -137 25 0 23 595 -2
610 -26 16 -26 144 0 160 49 30 23 290 -29 290 -125 0 -140 138 -31 275 l80
101 0 229 0 230 -87 -88 c-89 -88 -178 -115 -199 -61 -31 81 148 286 235 269
50 -9 51 -8 51 118 0 94 -7 127 -27 127 -17 0 -41 47 -60 116 -42 149 -43 147
22 140 51 -6 55 0 61 77 8 115 -176 183 -646 238 -431 50 -568 92 -1140 344
-1073 472 -1663 624 -2270 582z m840 -207 c232 -43 416 -106 440 -149 25 -47
65 -63 200 -78 133 -16 182 -81 139 -185 -49 -119 -168 -103 -518 68 l-251
123 -200 0 c-385 -2 -690 -212 -690 -477 0 -90 88 -192 165 -192 68 0 130 -71
102 -116 -41 -67 -131 -93 -327 -93 -180 -1 -190 -3 -196 -45 -19 -130 -124
-106 -124 30 0 111 -37 177 -89 157 -28 -11 -33 -34 -28 -128 l7 -115 -82 6
c-69 5 -85 -1 -93 -34 -13 -49 -102 -74 -164 -46 -102 46 -77 256 62 524 66
127 92 201 100 290 18 213 39 240 197 255 42 3 62 17 67 45 26 148 113 -4 94
-163 -23 -178 72 -123 217 126 142 244 420 300 972 197z m-458 -545 c-39 -70
-117 -145 -151 -145 -57 0 -28 84 47 134 84 57 132 62 104 11z m1825 10 c118
-24 120 -25 171 -135 96 -204 56 -471 -76 -505 -36 -10 -54 -3 -161 62 -41 24
-44 23 -32 -15 19 -59 -18 -54 -146 19 -173 100 -226 266 -138 440 73 145 168
179 382 134z m-1137 -132 c238 -112 306 -192 220 -263 -39 -32 -38 -122 1
-215 24 -58 26 -84 8 -117 -51 -94 -387 -220 -532 -198 l-83 12 48 48 c80 80
63 365 -23 398 -134 51 -273 -270 -156 -359 21 -15 26 -28 13 -28 -119 -3
-219 198 -191 383 59 379 328 511 695 339z m515 -148 c5 -58 21 -132 36 -165
14 -33 27 -64 29 -70 1 -5 15 -35 30 -66 30 -61 26 -66 -81 -130 -115 -68
-124 -48 -112 258 6 147 11 270 12 273 14 61 78 -13 86 -100z m1181 -7 c52
-17 100 -42 107 -55 7 -13 7 -17 -1 -10 -8 7 -58 1 -112 -13 -111 -29 -120
-25 -120 53 0 66 3 67 126 25z m685 -81 c49 -58 81 -76 150 -85 144 -19 252
-325 179 -502 -53 -128 -383 -360 -513 -360 -156 0 -55 243 116 278 114 23
126 397 19 534 -41 52 -61 208 -27 208 8 0 43 -33 76 -73z m-406 4 c112 -18
175 -122 175 -288 l0 -92 -48 89 c-26 50 -99 141 -162 204 -63 62 -102 111
-87 108 15 -3 70 -12 122 -21z m-114 -264 c63 -68 149 -339 149 -470 0 -189
-159 -280 -430 -246 -204 25 -219 107 -24 140 163 28 240 165 145 260 -74 74
-138 63 -249 -41 -105 -98 -124 -105 -163 -59 -78 95 286 469 457 469 46 0 81
-16 115 -53z m-2667 -201 c86 -82 68 -146 -42 -146 -57 0 -198 158 -162 181
57 36 146 21 204 -35z m-1207 -86 c50 -42 50 -45 -8 -200 -24 -65 -30 -126
-22 -222 l10 -133 -99 -12 c-152 -18 -281 -118 -378 -297 -51 -93 -120 -103
-120 -17 0 8 -28 50 -62 93 l-61 77 48 41 c27 22 92 76 145 120 148 124 390
472 390 561 0 75 61 71 157 -11z"/>
<path d="M2553 3615 c-519 -548 -1108 -1328 -931 -1234 62 33 95 10 102 -75
l6 -76 48 90 c26 50 68 114 93 144 24 30 88 133 140 230 405 747 712 769 1128
81 89 -147 108 -152 211 -57 141 130 380 231 436 185 97 -80 138 -750 66
-1082 -46 -216 -169 -571 -274 -795 -108 -230 -143 -341 -114 -359 67 -41 255
369 396 861 54 188 112 377 130 420 80 189 4 1527 -92 1640 -9 9 -75 -7 -150
-37 -147 -58 -213 -56 -249 10 -67 126 -266 152 -512 67 -158 -54 -207 -46
-207 33 0 140 -63 127 -227 -46z m857 -250 c100 -63 138 -75 230 -75 l110 0 0
-80 c0 -78 -1 -79 -87 -94 -48 -8 -145 -46 -216 -85 -167 -92 -165 -93 -292
64 -60 74 -133 158 -162 185 -73 70 -66 95 32 120 47 12 94 25 105 29 73 27
168 5 280 -64z"/>
<path d="M1 3357 c-1 -167 7 -250 28 -290 16 -32 62 -127 103 -213 40 -85 103
-193 140 -240 l67 -84 -76 -13 c-42 -8 -111 -37 -153 -65 -41 -29 -83 -52 -93
-52 -29 0 -19 -198 14 -261 50 -98 121 -68 112 48 -6 80 29 113 118 113 115 0
154 -61 155 -245 0 -151 -1 -148 263 -1054 156 -538 220 -665 453 -905 89 -91
186 -128 215 -81 15 24 -69 206 -89 194 -10 -6 -18 1 -18 17 0 16 -30 68 -67
116 -150 197 -314 628 -365 958 l-13 90 177 -170 c98 -93 182 -179 186 -189 5
-11 54 -74 110 -140 57 -67 156 -211 221 -321 65 -110 128 -207 140 -215 13
-9 13 -15 1 -15 -11 -1 -3 -14 19 -31 21 -16 31 -29 22 -29 -19 0 71 -124 156
-215 59 -63 66 -65 220 -65 l159 0 -78 57 c-153 111 -278 279 -514 687 -130
228 -377 517 -702 823 l-272 256 0 304 c0 374 -11 413 -147 543 -114 108 -245
344 -267 480 -7 46 -38 97 -88 145 -55 53 -85 107 -106 185 l-29 110 -2 -233z"/>
<path d="M2730 2864 c-269 -150 -431 -304 -545 -517 -129 -243 -171 -182 -74
107 55 164 56 210 4 158 -75 -75 -125 -530 -111 -1012 12 -426 58 -482 170
-208 105 256 243 338 359 213 47 -50 63 -55 198 -55 206 0 306 -94 338 -320
30 -206 114 -310 192 -239 103 93 380 1005 403 1329 l6 90 -150 13 c-164 14
-308 47 -604 140 -283 89 -312 143 -144 259 147 101 117 130 -42 42z m-65
-434 c87 -59 354 -150 592 -201 l167 -36 -9 -91 c-12 -120 -133 -571 -164
-614 -21 -29 -37 -19 -132 82 -131 138 -211 181 -369 201 -66 8 -153 31 -194
52 -90 45 -167 47 -264 7 l-72 -31 0 138 c0 101 8 145 31 164 17 14 55 67 84
117 68 119 139 206 192 236 57 33 53 33 138 -24z"/>
<path d="M1655 1900 c-25 -64 -76 -638 -63 -717 7 -46 58 -162 113 -258 119
-211 145 -240 128 -148 -12 64 -112 754 -149 1023 -9 72 -23 117 -29 100z"/>
<path d="M148 1248 c-16 -39 -44 -149 -61 -245 -17 -95 -44 -193 -59 -217 -72
-115 -36 -182 108 -199 l98 -12 26 187 c31 215 37 423 15 503 -23 82 -89 73
-127 -17z"/>
<path d="M2000 964 c0 -366 485 -666 861 -534 200 71 351 269 184 243 -406
-65 -664 4 -893 239 -119 122 -152 133 -152 52z"/>
<path d="M5740 269 c-11 -29 -20 -101 -20 -160 l0 -109 90 0 c50 0 90 5 90 12
0 7 -14 68 -32 135 -46 178 -91 220 -128 122z"/>
</g>
</svg>
